# xmcd
#
# Track frame offsets:
#	150
#	16016
#	31882
#	48949
#	65191
#	81357
#	95724
#	113091
#	129557
#	145648
#	158364
#	174156
#	187397
#	203114
#	218831
#	236498
#	251839
#	267631
#
# Disc length: 3785 seconds
#
# Revision: 2
# Processed by: cddbd v1.5.2PL0 Copyright (c) Steve Scherf et al.
# Submitted via: audiograbber 1.83.01
#
DISCID=fe0ec712
DTITLE=Various Artist - Promo Only Country Radio 2011 - 06
DYEAR=2011
DGENRE=Country
TTITLE0=Blake Shelton - Honey Bee
TTITLE1=Trace Adkins - Just Fishin'
TTITLE2=Luke Bryan - Country Girl (Shake it for Me)
TTITLE3=Stealing Angels - Paper Heart
TTITLE4=Brantley Gilbert - Country Must Be Country Wide
TTITLE5=Dierks Bentley - Am I the Only One
TTITLE6=Jason Aldean - Dirt Road Anthem
TTITLE7=Jaron And The Long Road To Love - It's A Good Thing
TTITLE8=Reba McEntire - When Love Gets A Hold of You
TTITLE9=Jake Owen - Barefoot Blue Jean Night
TTITLE10=Billy Currington - Love Done Gone
TTITLE11=Margaret Durante - Maybe Tonight
TTITLE12=Rodney Atkins - Take A Back Road
TTITLE13=Jason Michael Carroll - Numbers
TTITLE14=Randy Houser - In God's Time
TTITLE15=Sunny Sweeney - Staying's Worse than Leaving
TTITLE16=John Rich - For the Kids
TTITLE17=Danielle Car - Pretty Please
EXTD=
EXTT0=
EXTT1=
EXTT2=
EXTT3=
EXTT4=
EXTT5=
EXTT6=
EXTT7=
EXTT8=
EXTT9=
EXTT10=
EXTT11=
EXTT12=
EXTT13=
EXTT14=
EXTT15=
EXTT16=
EXTT17=
PLAYORDER=
